<mxfile host="app.diagrams.net" agent="Mozilla/5.0 (Windows NT 10.0; Win64; x64) AppleWebKit/537.36 (KHTML, like Gecko) Chrome/133.0.0.0 Safari/537.36" version="26.0.16">
  <diagram id="C5RBs43oDa-KdzZeNtuy" name="Page-1">
    <mxGraphModel dx="1313" dy="663" grid="1" gridSize="10" guides="1" tooltips="1" connect="1" arrows="1" fold="1" page="1" pageScale="1" pageWidth="827" pageHeight="1169" math="0" shadow="0">
      <root>
        <mxCell id="WIyWlLk6GJQsqaUBKTNV-0" />
        <mxCell id="WIyWlLk6GJQsqaUBKTNV-1" parent="WIyWlLk6GJQsqaUBKTNV-0" />
        <mxCell id="LIm6VPAugnNp1yLPzDzS-15" style="edgeStyle=orthogonalEdgeStyle;rounded=0;orthogonalLoop=1;jettySize=auto;html=1;exitX=0.5;exitY=1;exitDx=0;exitDy=0;entryX=0.5;entryY=0;entryDx=0;entryDy=0;" edge="1" parent="WIyWlLk6GJQsqaUBKTNV-1" source="LIm6VPAugnNp1yLPzDzS-0" target="LIm6VPAugnNp1yLPzDzS-4">
          <mxGeometry relative="1" as="geometry" />
        </mxCell>
        <mxCell id="LIm6VPAugnNp1yLPzDzS-0" value="Khởi tạo các Module" style="rounded=1;whiteSpace=wrap;html=1;fontSize=12;glass=0;strokeWidth=1;shadow=0;" vertex="1" parent="WIyWlLk6GJQsqaUBKTNV-1">
          <mxGeometry x="343.90999999999997" y="200" width="120" height="40" as="geometry" />
        </mxCell>
        <mxCell id="LIm6VPAugnNp1yLPzDzS-16" style="edgeStyle=orthogonalEdgeStyle;rounded=0;orthogonalLoop=1;jettySize=auto;html=1;entryX=0.5;entryY=0;entryDx=0;entryDy=0;" edge="1" parent="WIyWlLk6GJQsqaUBKTNV-1" source="LIm6VPAugnNp1yLPzDzS-1" target="LIm6VPAugnNp1yLPzDzS-0">
          <mxGeometry relative="1" as="geometry" />
        </mxCell>
        <mxCell id="LIm6VPAugnNp1yLPzDzS-1" value="START" style="ellipse;whiteSpace=wrap;html=1;" vertex="1" parent="WIyWlLk6GJQsqaUBKTNV-1">
          <mxGeometry x="363.90999999999997" y="130" width="80" height="40" as="geometry" />
        </mxCell>
        <mxCell id="LIm6VPAugnNp1yLPzDzS-2" value="END" style="ellipse;whiteSpace=wrap;html=1;" vertex="1" parent="WIyWlLk6GJQsqaUBKTNV-1">
          <mxGeometry x="363.90999999999997" y="960" width="80" height="40" as="geometry" />
        </mxCell>
        <mxCell id="LIm6VPAugnNp1yLPzDzS-17" style="edgeStyle=orthogonalEdgeStyle;rounded=0;orthogonalLoop=1;jettySize=auto;html=1;entryX=0.5;entryY=0;entryDx=0;entryDy=0;" edge="1" parent="WIyWlLk6GJQsqaUBKTNV-1" source="LIm6VPAugnNp1yLPzDzS-4" target="LIm6VPAugnNp1yLPzDzS-5">
          <mxGeometry relative="1" as="geometry" />
        </mxCell>
        <mxCell id="LIm6VPAugnNp1yLPzDzS-4" value="Thêm Module vào List" style="rounded=1;whiteSpace=wrap;html=1;fontSize=12;glass=0;strokeWidth=1;shadow=0;" vertex="1" parent="WIyWlLk6GJQsqaUBKTNV-1">
          <mxGeometry x="343.90999999999997" y="270" width="120" height="40" as="geometry" />
        </mxCell>
        <mxCell id="LIm6VPAugnNp1yLPzDzS-18" style="edgeStyle=orthogonalEdgeStyle;rounded=0;orthogonalLoop=1;jettySize=auto;html=1;entryX=0.5;entryY=0;entryDx=0;entryDy=0;" edge="1" parent="WIyWlLk6GJQsqaUBKTNV-1" source="LIm6VPAugnNp1yLPzDzS-5" target="LIm6VPAugnNp1yLPzDzS-6">
          <mxGeometry relative="1" as="geometry" />
        </mxCell>
        <mxCell id="LIm6VPAugnNp1yLPzDzS-5" value="Bật Module" style="rounded=1;whiteSpace=wrap;html=1;fontSize=12;glass=0;strokeWidth=1;shadow=0;" vertex="1" parent="WIyWlLk6GJQsqaUBKTNV-1">
          <mxGeometry x="343.90999999999997" y="340" width="120" height="40" as="geometry" />
        </mxCell>
        <mxCell id="LIm6VPAugnNp1yLPzDzS-19" style="edgeStyle=orthogonalEdgeStyle;rounded=0;orthogonalLoop=1;jettySize=auto;html=1;entryX=0.5;entryY=0;entryDx=0;entryDy=0;" edge="1" parent="WIyWlLk6GJQsqaUBKTNV-1" source="LIm6VPAugnNp1yLPzDzS-37" target="LIm6VPAugnNp1yLPzDzS-9">
          <mxGeometry relative="1" as="geometry">
            <mxPoint x="403.9688235294117" y="530" as="sourcePoint" />
          </mxGeometry>
        </mxCell>
        <mxCell id="LIm6VPAugnNp1yLPzDzS-41" value="Không" style="edgeLabel;html=1;align=center;verticalAlign=middle;resizable=0;points=[];" vertex="1" connectable="0" parent="LIm6VPAugnNp1yLPzDzS-19">
          <mxGeometry x="0.3303" y="1" relative="1" as="geometry">
            <mxPoint x="19" y="-3" as="offset" />
          </mxGeometry>
        </mxCell>
        <mxCell id="LIm6VPAugnNp1yLPzDzS-38" style="edgeStyle=orthogonalEdgeStyle;rounded=0;orthogonalLoop=1;jettySize=auto;html=1;entryX=0.5;entryY=0;entryDx=0;entryDy=0;" edge="1" parent="WIyWlLk6GJQsqaUBKTNV-1" source="LIm6VPAugnNp1yLPzDzS-6" target="LIm6VPAugnNp1yLPzDzS-37">
          <mxGeometry relative="1" as="geometry" />
        </mxCell>
        <mxCell id="LIm6VPAugnNp1yLPzDzS-6" value="Làm việc với Module" style="rounded=1;whiteSpace=wrap;html=1;fontSize=12;glass=0;strokeWidth=1;shadow=0;" vertex="1" parent="WIyWlLk6GJQsqaUBKTNV-1">
          <mxGeometry x="343.90999999999997" y="410" width="120" height="40" as="geometry" />
        </mxCell>
        <mxCell id="LIm6VPAugnNp1yLPzDzS-24" style="edgeStyle=orthogonalEdgeStyle;rounded=0;orthogonalLoop=1;jettySize=auto;html=1;entryX=1;entryY=0.5;entryDx=0;entryDy=0;" edge="1" parent="WIyWlLk6GJQsqaUBKTNV-1" source="LIm6VPAugnNp1yLPzDzS-8" target="LIm6VPAugnNp1yLPzDzS-23">
          <mxGeometry relative="1" as="geometry" />
        </mxCell>
        <mxCell id="LIm6VPAugnNp1yLPzDzS-25" value="Cảnh báo" style="edgeLabel;html=1;align=center;verticalAlign=middle;resizable=0;points=[];" vertex="1" connectable="0" parent="LIm6VPAugnNp1yLPzDzS-24">
          <mxGeometry x="0.1619" y="1" relative="1" as="geometry">
            <mxPoint x="11" y="-11" as="offset" />
          </mxGeometry>
        </mxCell>
        <mxCell id="LIm6VPAugnNp1yLPzDzS-26" style="edgeStyle=orthogonalEdgeStyle;rounded=0;orthogonalLoop=1;jettySize=auto;html=1;entryX=0.5;entryY=0;entryDx=0;entryDy=0;" edge="1" parent="WIyWlLk6GJQsqaUBKTNV-1" source="LIm6VPAugnNp1yLPzDzS-8" target="LIm6VPAugnNp1yLPzDzS-13">
          <mxGeometry relative="1" as="geometry" />
        </mxCell>
        <mxCell id="LIm6VPAugnNp1yLPzDzS-27" value="Lỗi&lt;div&gt;&lt;br&gt;&lt;/div&gt;" style="edgeLabel;html=1;align=center;verticalAlign=middle;resizable=0;points=[];" vertex="1" connectable="0" parent="LIm6VPAugnNp1yLPzDzS-26">
          <mxGeometry x="-0.0815" y="1" relative="1" as="geometry">
            <mxPoint x="9" as="offset" />
          </mxGeometry>
        </mxCell>
        <mxCell id="LIm6VPAugnNp1yLPzDzS-29" style="edgeStyle=orthogonalEdgeStyle;rounded=0;orthogonalLoop=1;jettySize=auto;html=1;exitX=1;exitY=0.5;exitDx=0;exitDy=0;entryX=1;entryY=0.5;entryDx=0;entryDy=0;" edge="1" parent="WIyWlLk6GJQsqaUBKTNV-1" source="LIm6VPAugnNp1yLPzDzS-8" target="LIm6VPAugnNp1yLPzDzS-6">
          <mxGeometry relative="1" as="geometry">
            <Array as="points">
              <mxPoint x="623.91" y="690" />
              <mxPoint x="623.91" y="430" />
            </Array>
          </mxGeometry>
        </mxCell>
        <mxCell id="LIm6VPAugnNp1yLPzDzS-30" value="Không Lỗi, Không cảnh báo" style="edgeLabel;html=1;align=center;verticalAlign=middle;resizable=0;points=[];" vertex="1" connectable="0" parent="LIm6VPAugnNp1yLPzDzS-29">
          <mxGeometry x="-0.7649" y="-2" relative="1" as="geometry">
            <mxPoint x="3" y="-12" as="offset" />
          </mxGeometry>
        </mxCell>
        <mxCell id="LIm6VPAugnNp1yLPzDzS-8" value="Kiểm tra trạng thái Module" style="rhombus;whiteSpace=wrap;html=1;shadow=0;fontFamily=Helvetica;fontSize=12;align=center;strokeWidth=1;spacing=6;spacingTop=-4;" vertex="1" parent="WIyWlLk6GJQsqaUBKTNV-1">
          <mxGeometry x="333.90999999999997" y="650" width="140" height="80" as="geometry" />
        </mxCell>
        <mxCell id="LIm6VPAugnNp1yLPzDzS-20" style="edgeStyle=orthogonalEdgeStyle;rounded=0;orthogonalLoop=1;jettySize=auto;html=1;" edge="1" parent="WIyWlLk6GJQsqaUBKTNV-1" source="LIm6VPAugnNp1yLPzDzS-9" target="LIm6VPAugnNp1yLPzDzS-8">
          <mxGeometry relative="1" as="geometry" />
        </mxCell>
        <mxCell id="LIm6VPAugnNp1yLPzDzS-9" value="Cập nhật Trạng Thái Module" style="rounded=1;whiteSpace=wrap;html=1;fontSize=12;glass=0;strokeWidth=1;shadow=0;" vertex="1" parent="WIyWlLk6GJQsqaUBKTNV-1">
          <mxGeometry x="343.90999999999997" y="590" width="120" height="40" as="geometry" />
        </mxCell>
        <mxCell id="LIm6VPAugnNp1yLPzDzS-33" style="edgeStyle=orthogonalEdgeStyle;rounded=0;orthogonalLoop=1;jettySize=auto;html=1;entryX=1;entryY=0.5;entryDx=0;entryDy=0;" edge="1" parent="WIyWlLk6GJQsqaUBKTNV-1" source="LIm6VPAugnNp1yLPzDzS-10" target="LIm6VPAugnNp1yLPzDzS-0">
          <mxGeometry relative="1" as="geometry">
            <Array as="points">
              <mxPoint x="643.91" y="220" />
            </Array>
          </mxGeometry>
        </mxCell>
        <mxCell id="LIm6VPAugnNp1yLPzDzS-10" value="Reset Hệ thống" style="rounded=1;whiteSpace=wrap;html=1;fontSize=12;glass=0;strokeWidth=1;shadow=0;" vertex="1" parent="WIyWlLk6GJQsqaUBKTNV-1">
          <mxGeometry x="583.91" y="860" width="120" height="40" as="geometry" />
        </mxCell>
        <mxCell id="LIm6VPAugnNp1yLPzDzS-32" style="edgeStyle=orthogonalEdgeStyle;rounded=0;orthogonalLoop=1;jettySize=auto;html=1;exitX=1;exitY=0.5;exitDx=0;exitDy=0;entryX=0;entryY=0.5;entryDx=0;entryDy=0;" edge="1" parent="WIyWlLk6GJQsqaUBKTNV-1" source="LIm6VPAugnNp1yLPzDzS-11" target="LIm6VPAugnNp1yLPzDzS-10">
          <mxGeometry relative="1" as="geometry" />
        </mxCell>
        <mxCell id="LIm6VPAugnNp1yLPzDzS-34" value="Không" style="edgeLabel;html=1;align=center;verticalAlign=middle;resizable=0;points=[];" vertex="1" connectable="0" parent="LIm6VPAugnNp1yLPzDzS-32">
          <mxGeometry x="-0.2702" y="1" relative="1" as="geometry">
            <mxPoint y="-9" as="offset" />
          </mxGeometry>
        </mxCell>
        <mxCell id="LIm6VPAugnNp1yLPzDzS-35" style="edgeStyle=orthogonalEdgeStyle;rounded=0;orthogonalLoop=1;jettySize=auto;html=1;" edge="1" parent="WIyWlLk6GJQsqaUBKTNV-1" source="LIm6VPAugnNp1yLPzDzS-11" target="LIm6VPAugnNp1yLPzDzS-2">
          <mxGeometry relative="1" as="geometry" />
        </mxCell>
        <mxCell id="LIm6VPAugnNp1yLPzDzS-36" value="Có" style="edgeLabel;html=1;align=center;verticalAlign=middle;resizable=0;points=[];" vertex="1" connectable="0" parent="LIm6VPAugnNp1yLPzDzS-35">
          <mxGeometry x="-0.4741" y="2" relative="1" as="geometry">
            <mxPoint x="8" y="10" as="offset" />
          </mxGeometry>
        </mxCell>
        <mxCell id="LIm6VPAugnNp1yLPzDzS-11" value="Kiểm tra trạng thái Thoát" style="rhombus;whiteSpace=wrap;html=1;shadow=0;fontFamily=Helvetica;fontSize=12;align=center;strokeWidth=1;spacing=6;spacingTop=-4;" vertex="1" parent="WIyWlLk6GJQsqaUBKTNV-1">
          <mxGeometry x="333.90999999999997" y="840" width="140" height="80" as="geometry" />
        </mxCell>
        <mxCell id="LIm6VPAugnNp1yLPzDzS-31" style="edgeStyle=orthogonalEdgeStyle;rounded=0;orthogonalLoop=1;jettySize=auto;html=1;exitX=0.5;exitY=1;exitDx=0;exitDy=0;entryX=0.5;entryY=0;entryDx=0;entryDy=0;" edge="1" parent="WIyWlLk6GJQsqaUBKTNV-1" source="LIm6VPAugnNp1yLPzDzS-13" target="LIm6VPAugnNp1yLPzDzS-11">
          <mxGeometry relative="1" as="geometry" />
        </mxCell>
        <mxCell id="LIm6VPAugnNp1yLPzDzS-13" value="Giải phóng Danh sách Module" style="rounded=1;whiteSpace=wrap;html=1;fontSize=12;glass=0;strokeWidth=1;shadow=0;" vertex="1" parent="WIyWlLk6GJQsqaUBKTNV-1">
          <mxGeometry x="343.90999999999997" y="775" width="120" height="40" as="geometry" />
        </mxCell>
        <mxCell id="LIm6VPAugnNp1yLPzDzS-28" style="edgeStyle=orthogonalEdgeStyle;rounded=0;orthogonalLoop=1;jettySize=auto;html=1;exitX=0.5;exitY=0;exitDx=0;exitDy=0;entryX=0;entryY=0.5;entryDx=0;entryDy=0;" edge="1" parent="WIyWlLk6GJQsqaUBKTNV-1" source="LIm6VPAugnNp1yLPzDzS-23" target="LIm6VPAugnNp1yLPzDzS-6">
          <mxGeometry relative="1" as="geometry" />
        </mxCell>
        <mxCell id="LIm6VPAugnNp1yLPzDzS-23" value="Cảnh báo" style="rounded=1;whiteSpace=wrap;html=1;fontSize=12;glass=0;strokeWidth=1;shadow=0;" vertex="1" parent="WIyWlLk6GJQsqaUBKTNV-1">
          <mxGeometry x="143.91" y="670" width="120" height="40" as="geometry" />
        </mxCell>
        <mxCell id="LIm6VPAugnNp1yLPzDzS-40" style="edgeStyle=orthogonalEdgeStyle;rounded=0;orthogonalLoop=1;jettySize=auto;html=1;entryX=0;entryY=0.5;entryDx=0;entryDy=0;" edge="1" parent="WIyWlLk6GJQsqaUBKTNV-1" source="LIm6VPAugnNp1yLPzDzS-37" target="LIm6VPAugnNp1yLPzDzS-13">
          <mxGeometry relative="1" as="geometry">
            <Array as="points">
              <mxPoint x="123.91" y="520" />
              <mxPoint x="123.91" y="795" />
            </Array>
          </mxGeometry>
        </mxCell>
        <mxCell id="LIm6VPAugnNp1yLPzDzS-42" value="Có" style="edgeLabel;html=1;align=center;verticalAlign=middle;resizable=0;points=[];" vertex="1" connectable="0" parent="LIm6VPAugnNp1yLPzDzS-40">
          <mxGeometry x="-0.8983" y="-2" relative="1" as="geometry">
            <mxPoint y="-8" as="offset" />
          </mxGeometry>
        </mxCell>
        <mxCell id="LIm6VPAugnNp1yLPzDzS-37" value="Kiểm tra trạng thái Thoát" style="rhombus;whiteSpace=wrap;html=1;shadow=0;fontFamily=Helvetica;fontSize=12;align=center;strokeWidth=1;spacing=6;spacingTop=-4;" vertex="1" parent="WIyWlLk6GJQsqaUBKTNV-1">
          <mxGeometry x="336.40999999999997" y="480" width="135" height="80" as="geometry" />
        </mxCell>
      </root>
    </mxGraphModel>
  </diagram>
</mxfile>
